<svg width="37" height="37" viewBox="0 0 37 37" fill="none" xmlns="http://www.w3.org/2000/svg">
<path d="M18.5 37C28.7173 37 37 28.7173 37 18.5C37 8.28273 28.7173 0 18.5 0C8.28273 0 0 8.28273 0 18.5C0 28.7173 8.28273 37 18.5 37Z" fill="#F6D738"/>
<path d="M18.5 34.2008C27.1713 34.2008 34.2008 27.1713 34.2008 18.5C34.2008 9.82866 27.1713 2.79916 18.5 2.79916C9.82866 2.79916 2.79916 9.82866 2.79916 18.5C2.79916 27.1713 9.82866 34.2008 18.5 34.2008Z" fill="#F3CC30"/>
<path d="M26.7146 5.09959C28.2779 7.54043 29.1846 10.4427 29.1846 13.5566C29.1846 22.228 22.1552 29.2574 13.4837 29.2574C10.4725 29.2574 7.65931 28.409 5.26917 26.9389C8.05961 31.295 12.9424 34.1828 18.5 34.1828C27.1714 34.1828 34.2008 27.1533 34.2008 18.4819C34.2008 12.8224 31.2059 7.86265 26.7146 5.09959Z" fill="#EDBD31"/>
<path d="M5.54941 19.9369C5.54941 12.2823 11.7543 6.07733 19.409 6.07733C23.8833 6.07733 27.8613 8.19769 30.3953 11.4881C28.0023 7.33358 23.5163 4.53615 18.377 4.53615C10.7224 4.53615 4.51749 10.7411 4.51749 18.3957C4.51749 21.576 5.58961 24.5057 7.39067 26.8445C6.21949 24.811 5.54883 22.4523 5.54883 19.9369H5.54941Z" fill="#F7DB5E"/>
</svg>
