<svg width="229" height="150" viewBox="0 0 229 150" fill="none" xmlns="http://www.w3.org/2000/svg">
<path d="M229 0H0V149.374H229V0Z" fill="#ADADA7"/>
<path d="M228.429 0.688644H0.490707V148.989H228.429V0.688644Z" fill="#EDECE7"/>
<path d="M218.597 12.2704V137.014H11.5539V12.2704H218.606H218.597ZM223.906 6.91331H6.24538V142.362H223.906V6.91331Z" fill="#E12A19"/>
<path d="M170.802 116.936H59.3578V45.728H170.802V116.936ZM64.6575 111.579H165.493V51.0851H64.6575V111.579Z" fill="#E12A19"/>
<g style="mix-blend-mode:color-dodge" opacity="0.2">
<path d="M4.33607 4.50751H225.636C225.636 4.50751 203.876 93.3788 118.43 94.452C18.5844 95.7041 4.33607 4.50751 4.33607 4.50751Z" fill="white"/>
</g>
<path d="M127.647 106.007H100.185V133.714H127.647V106.007Z" fill="#95120F"/>
<path d="M127.468 105.291H100.006V132.998H127.468V105.291Z" fill="#A81314"/>
<path d="M115.191 110.649C115.191 111.462 114.54 112.115 113.728 112.115C112.916 112.115 112.265 111.454 112.265 110.649C112.265 109.844 112.916 109.173 113.728 109.173C114.54 109.173 115.191 109.835 115.191 110.649Z" fill="#410500"/>
<path d="M115.191 128.983C115.191 129.797 114.54 130.458 113.728 130.458C112.916 130.458 112.265 129.797 112.265 128.983C112.265 128.169 112.916 127.507 113.728 127.507C114.54 127.507 115.191 128.169 115.191 128.983Z" fill="#410500"/>
</svg>
