<svg width="117" height="106" viewBox="0 0 117 106" fill="none" xmlns="http://www.w3.org/2000/svg">
<path d="M58.0308 1.08412C26.0099 1.08412 0.0559464 5.55587 0.0559464 11.074C0.0559464 16.5921 26.0099 21.0638 58.0308 21.0638C90.0518 21.0638 116.015 16.5921 116.015 11.074C116.015 5.55587 90.0607 1.08412 58.0308 1.08412ZM58.0308 16.7889C30.7743 16.7889 8.67456 14.231 8.67456 11.074C8.67456 7.91694 30.7743 5.35911 58.0308 5.35911C85.2874 5.35911 107.387 7.91694 107.387 11.074C107.387 14.231 85.2874 16.7889 58.0308 16.7889Z" fill="#2C2D2B"/>
<path d="M8.98683 11.7626H9.01359C8.79054 11.5301 8.67456 11.3065 8.67456 11.0829C8.67456 7.92588 30.7743 5.36805 58.0308 5.36805C85.2874 5.36805 107.387 7.92588 107.387 11.0829C110.902 7.2909 85.2964 2.42565 57.8346 2.82811C30.3728 3.23057 12.859 6.44127 9.01359 8.05109C5.16823 9.66092 8.99575 11.7626 8.99575 11.7626H8.98683Z" fill="#1D1D1B"/>
<path d="M112.009 7.42505C112.58 8.24785 113.035 9.2048 113.285 10.3227C114.48 15.6799 73.6175 20.089 50.2241 19.3735C36.6806 18.9532 24.0739 17.6027 15.2411 15.8856C15.2144 15.8856 15.1876 15.9035 15.1519 15.8945C13.7958 15.7961 12.4218 15.4116 11.1103 15.0717C8.95114 14.5262 6.8188 13.8822 4.76674 13.0147C3.18756 12.344 1.05521 11.1366 0.618031 9.6788C0.25223 10.1349 0.0559464 10.6 0.0559464 11.074C0.0559464 16.5921 26.0099 21.0638 58.0308 21.0638C90.0518 21.0638 116.015 16.5921 116.015 11.074C116.015 9.78613 114.596 8.55193 112.018 7.41611L112.009 7.42505Z" fill="#1D1D1B"/>
<path d="M4.80242 12.5944C4.80242 12.5944 -1.47864 9.65197 6.39946 7.05836C14.2686 4.4737 31.4345 1.07518 68.6658 1.70122C68.6658 1.70122 38.0635 1.61179 19.1311 5.00137C19.1311 5.00137 8.07679 6.25346 6.47976 8.83812C6.47976 8.83812 4.89164 10.3585 7.45225 11.7805C10.0218 13.2115 11.6099 15.5278 40.9721 17.1377C40.9721 17.1377 69.7186 17.5848 84.0473 16.3327C84.0473 16.3327 67.8629 18.6491 39.8211 18.2019C22.2181 17.9247 9.83442 14.9018 4.79351 12.5765L4.80242 12.5944Z" fill="#505150"/>
<path d="M69.7275 1.3256C69.8614 1.27194 69.7811 1.07518 69.6919 1.02152C67.845 -0.0695809 66.703 1.6118 66.2123 3.33789C65.8822 4.28589 65.7216 5.35016 65.5431 6.17296C65.4182 6.77218 65.2398 7.3535 65.0167 7.92588C64.7134 8.63242 64.3922 9.33896 64.0353 10.0187C63.7855 10.4837 63.5179 10.9398 63.2413 11.387C62.0814 13.1846 60.5379 14.8302 59.6546 16.7441C59.6546 16.7531 59.6546 16.771 59.6546 16.7889C60.1275 16.7889 60.6004 16.7889 61.0732 16.7889C61.7602 16.2075 62.3937 15.5726 62.9825 14.8929C63.8034 13.9448 64.3654 12.8537 65.1416 11.8789C65.8286 11.0114 66.7833 10.287 67.6844 11.396C68.2197 12.0488 68.532 13.2294 68.8443 14.0164C69.1833 14.866 69.4599 15.7425 69.6294 16.6368C70.013 16.6279 70.3967 16.6189 70.7714 16.601C70.4681 14.2757 69.6383 11.9952 68.6748 9.87556C67.6666 7.66652 66.6941 2.54192 69.7275 1.33455V1.3256Z" fill="#B2B3B3"/>
<path d="M14.2954 6.87056C14.0813 6.43233 13.7958 6.01198 13.3497 5.63636C11.601 4.16069 6.64035 3.7314 6.17641 6.43233C6.06042 7.10309 6.43515 6.03881 9.14742 5.94938C13.3407 5.80628 13.7601 9.52677 13.3407 12.335C13.2872 12.7106 13.1534 13.0594 13.0374 13.4261C13.4121 13.5245 13.8136 13.6139 14.2329 13.7123C14.5095 13.0594 14.911 12.5675 15.7229 12.9163C16.3921 13.2025 16.8738 13.7302 17.311 14.3026C17.9445 14.4099 18.6136 14.5172 19.3095 14.6156C18.0515 13.0058 16.7668 11.4317 15.6694 9.66092C15.2054 8.91861 14.8575 7.74701 14.2865 6.86161L14.2954 6.87056Z" fill="#B2B3B3"/>
<path d="M31.0062 4.28589C30.2211 3.08746 28.3118 1.71017 26.5542 1.51341C25.5014 1.59391 24.5735 1.9427 24.2612 2.89071C25.6084 3.18584 26.9824 2.9086 28.1958 3.794C29.9356 5.06398 29.9891 8.81128 29.0256 10.6C28.2226 12.1025 27.723 14.0432 27.4553 15.5547C27.9103 15.5994 28.3832 15.6352 28.856 15.6799C29.2754 14.0164 30.0159 12.4245 30.5512 10.7878C32.0323 9.10643 33.4687 12.0667 34.1557 13.0952C34.914 14.2042 35.7527 15.2953 36.7341 16.2344C37.3319 16.2702 37.9386 16.297 38.5542 16.3327C37.2873 14.3294 35.5297 12.6123 34.236 10.6179C32.9423 8.62348 32.2821 6.25345 30.9973 4.28589H31.0062Z" fill="#B2B3B3"/>
<path d="M50.1617 10.1528C49.8048 9.4731 49.4836 8.76657 49.1803 8.06004C48.9572 7.48766 48.7788 6.90633 48.6539 6.30712C48.4843 5.47538 48.3148 4.42005 47.9936 3.47204C47.5029 1.75489 46.3609 0.0645727 44.5141 1.15568C44.4249 1.20934 44.3446 1.41504 44.4784 1.4687C47.5029 2.68501 46.5394 7.80962 45.5312 10.0097C44.5855 12.0667 43.7825 14.2847 43.4524 16.5474C43.836 16.5653 44.2197 16.5742 44.6033 16.5832C44.978 14.8124 45.7542 13.1757 46.5126 11.5391C46.5126 11.5391 46.5126 11.539 46.5126 11.5301C47.0211 10.9041 47.9133 10.8325 48.5825 11.3781C48.6449 11.4317 48.6985 11.4854 48.7609 11.5391C49.894 13.4708 51.2858 15.2953 52.9543 16.762C53.4628 16.762 53.9803 16.771 54.4888 16.7799C53.5966 14.9107 52.0888 13.292 50.9557 11.5301C50.6792 11.074 50.4115 10.6179 50.1617 10.1618V10.1528Z" fill="#B2B3B3"/>
<path d="M108.217 5.30545C108.012 4.98348 107.637 4.81356 107.307 4.64363C106.718 4.3485 106.04 4.16068 105.398 4.03547C103.908 3.74928 102.382 4.11597 101.213 5.09975C100.767 5.47538 100.482 5.89572 100.267 6.33395C99.6964 7.21935 99.3485 8.39094 98.8845 9.13325C97.5908 11.1992 96.0562 13.0058 94.6109 14.9107C95.2979 14.8213 95.9581 14.7319 96.6005 14.6424C97.2607 13.757 97.8496 12.809 98.8399 12.3797C99.973 11.8968 100.312 13.0147 100.615 13.9627C100.99 13.8912 101.356 13.8107 101.695 13.7391C101.695 13.6765 101.713 13.6318 101.704 13.6139C101.632 12.9879 101.32 12.4244 101.231 11.8073C100.749 8.61453 101.32 5.90466 104.755 5.54692C105.398 5.48432 106.058 5.46643 106.691 5.60953C107.28 5.73474 109.109 6.68274 108.217 5.31439V5.30545Z" fill="#B2B3B3"/>
<path d="M85.0287 8.71291C84.4309 5.9941 85.3588 2.7655 88.5529 2.67607C89.0525 2.65818 90.4087 2.98014 90.6763 2.37199C90.6942 2.33621 90.6674 2.30939 90.6406 2.2915C89.8198 1.85327 89.1596 1.14673 88.0354 1.23617C85.9744 1.39715 84.6094 2.20206 83.4763 3.93709C82.1915 5.89571 81.5313 8.27468 80.2376 10.2691C78.8547 12.4066 76.9276 14.231 75.6517 16.4311C76.1781 16.4043 76.6956 16.3864 77.2131 16.3596C78.9618 14.8839 80.4517 12.7106 81.7008 10.5374C83.3514 9.21374 84.1097 10.6179 84.5648 12.1114C84.9484 13.3546 85.4659 14.5441 85.7425 15.823C86.1975 15.7872 86.6525 15.7514 87.0986 15.7157C86.9291 14.5888 86.6793 13.4619 86.3313 12.3797C85.9298 11.1545 85.3142 9.99183 85.0376 8.7308L85.0287 8.71291Z" fill="#B2B3B3"/>
<path d="M113.588 13.2204C113.356 11.1724 111.625 9.55359 109.725 9.00804C109.814 9.03487 109.912 9.0617 110.01 9.08854C109.93 9.0617 109.832 9.03487 109.725 9.00804C109.698 8.9991 109.671 8.99016 109.653 8.99016C109.68 8.99016 109.698 8.9991 109.725 9.00804C108.904 8.76657 107.958 8.94543 107.2 9.32106C106.816 9.51782 106.45 9.78612 106.183 10.126C106.093 10.2333 105.549 11.1276 106.022 10.9845C106.022 11.0561 106.076 11.0919 106.183 11.1008C107.833 10.9398 109.386 11.3781 110.501 12.6659C111.554 13.8822 111.661 15.4205 111.206 16.9141C110.742 18.4345 109.885 19.8118 109.056 21.1443C108.092 22.6916 107.432 23.4607 106.531 25.0437C105.46 26.9218 104.55 23.246 104.496 22.9777C104.122 21.0549 103.613 19.1589 103.006 17.2897C102.453 15.5726 101.49 13.2204 99.3931 13.1131C98.5187 12.183 97.5551 13.6408 97.3142 14.401C97.002 15.4116 96.8414 16.4848 96.5648 17.5043C96.0741 19.302 95.28 21.1533 94.2629 22.7005C92.88 24.8112 91.8718 25.0258 90.7923 22.5842C90.4979 21.9135 90.1677 21.2517 89.8466 20.5898C89.3291 19.5435 88.8651 18.4792 88.3655 17.4328C87.8659 16.3864 87.2949 15.2774 86.4116 14.4993C86.019 14.2758 85.6086 14.1237 85.1625 14.1237C84.1365 13.7123 83.3871 14.7855 82.9856 15.5636C82.4859 16.5295 82.1291 17.5759 81.6562 18.5597C81.0138 19.9101 80.3179 21.2248 79.6309 22.5485C78.8993 23.9526 78.0696 27.4495 76.196 27.6373C73.4926 27.9145 71.2889 20.8134 70.4413 19.0068C69.8881 17.8352 69.3171 16.6637 68.6123 15.5726C68.1216 14.8124 67.2651 13.4529 66.2301 14.3294C64.9721 14.8124 62.813 19.4808 61.4926 22.1549C60.7877 23.5859 59.3067 26.8413 57.9862 26.886C56.4338 26.9397 55.7557 24.2924 55.1669 23.1298C54.3282 21.4574 53.6056 19.767 53.0792 17.9694C52.981 17.6295 52.8829 17.2808 52.758 16.932C52.178 15.984 51.3126 15.2685 50.0546 15.7514C49.4568 15.975 48.9929 16.3596 48.5468 16.7799C48.3773 16.9946 48.2167 17.2181 48.0472 17.4238C46.1825 19.776 44.3624 22.2176 42.2925 24.3908C41.6323 25.0884 40.0353 27.1007 39.0806 27.3153C37.5014 27.6731 36.2791 23.8184 35.8687 22.6468C35.3066 21.046 34.6821 19.4182 34.5482 17.71C34.4055 16.9677 34.5036 15.6799 34.1111 15.1254C32.5765 12.9432 29.891 16.5653 28.7936 17.558C28.0085 18.2645 27.259 19.0068 26.5274 19.7849C25.3943 21.0012 24.3058 23.0582 22.5393 23.416C21.5311 23.6217 21.1029 22.8436 20.6568 22.0834C20.1839 21.2695 19.7289 20.4557 19.2292 19.6597C18.6672 18.7564 18.1229 17.8531 17.5965 16.923C17.5876 16.9051 17.5698 16.8962 17.5519 16.8783C17.2575 16.3864 16.9541 15.8856 16.7579 15.3579C16.7132 15.2595 16.6597 15.1701 16.6151 15.0807C16.624 15.0538 16.6419 15.027 16.6508 15.0002C16.5794 14.7229 16.5437 14.4278 16.5616 14.1237C16.6329 13.131 15.8389 12.8269 15.2054 13.4798C14.8932 13.8017 14.6523 14.1505 14.4828 14.5709C14.4649 14.6245 14.4203 14.6514 14.3846 14.6782C13.3497 16.8604 12.3593 19.0694 11.5474 21.3411C11.3779 21.7167 11.1995 22.1013 11.021 22.4769C10.7891 22.9777 8.67456 20.6703 8.53181 20.4736C7.65745 19.3109 6.81879 18.1214 5.88199 17.0035C5.06117 16.0197 4.0619 14.9376 3.82101 13.6318C3.21432 10.2601 7.10429 11.0293 8.96006 11.7447C8.47828 10.3227 7.80021 8.98121 6.12288 8.91861C4.34741 8.856 2.41134 10.1081 1.6619 11.7179C0.386057 14.4725 2.80391 17.1466 4.57938 18.9621C6.83663 21.2606 8.87084 23.3891 10.3608 26.3137C14.117 33.6831 16.7935 41.5444 19.9073 49.1911C25.1623 62.0965 29.8285 75.1808 33.9772 88.5066C35.2531 92.6027 36.5022 96.7435 38.0903 100.732C38.5274 101.814 38.7326 103.084 39.375 104.068C39.83 104.757 40.6776 105.097 41.4538 104.784C42.2747 104.453 42.8724 103.648 43.3453 102.923C44.3802 101.323 45.0762 99.4981 45.6918 97.7094C46.0487 98.3444 46.4145 98.9615 46.7981 99.5786C47.5475 101.689 48.5914 104.032 50.5989 105.204C51.5267 105.75 52.7401 106.08 53.7929 105.723C55.0331 105.302 55.9788 104.184 56.6836 103.12C57.1565 102.906 57.4955 102.333 57.781 101.922C58.1201 101.439 58.4234 100.947 58.7178 100.437C59.5119 101.94 60.3684 103.469 61.6086 104.641C62.6257 105.598 63.9015 106.394 65.3022 105.83C66.5335 105.329 67.4792 104.202 68.2197 103.12C69.0316 101.94 69.7008 100.634 70.1558 99.2656C70.6197 98.8899 70.9855 99.2834 71.3781 99.6233C71.8688 100.571 72.413 101.484 72.9662 102.387C73.4123 103.12 73.9209 103.952 74.706 104.363C75.3216 104.909 76.3298 105.419 77.0881 104.846C77.5164 104.524 77.7127 103.979 77.8198 103.469C77.9982 102.619 78.1856 101.77 78.3729 100.92C79.0956 97.62 79.8629 94.3288 80.6837 91.0555C83.7439 78.8476 87.8837 67.0243 92.9692 55.523C96.1722 48.2699 99.5983 41.0793 103.497 34.175C106.174 29.4439 109.038 24.8201 111.563 20.0085C112.125 18.9353 112.642 17.8353 113.017 16.6815C113.365 15.6083 113.704 14.3831 113.57 13.2383L113.588 13.2204ZM91.0332 32.6099C92.88 32.9229 94.8696 38.7898 95.0838 39.6126C95.4763 41.1062 94.825 42.4745 94.3878 43.8697C92.6927 46.3113 91.0064 48.7618 89.2934 51.1855C86.3224 55.371 84.4845 48.4935 83.5387 46.4007C83.1016 44.9071 83.1283 43.4315 83.6547 41.9647C85.7335 39.0581 87.9016 36.2051 89.9001 33.2448C90.257 32.7172 90.6406 32.5383 91.0243 32.6009L91.0332 32.6099ZM35.262 63.6348C35.262 63.6348 35.262 63.5811 35.2798 63.5543C35.6189 61.6761 36.7252 57.4548 39.2769 59.637C40.1423 60.3883 42.4888 64.9137 42.9438 66.2999C43.0419 66.4788 43.1312 66.6666 43.2293 66.8544C43.6486 68.4821 44.2821 70.092 44.3892 71.7823C44.4873 73.3653 43.8717 74.8409 43.1044 76.1914C42.694 76.8622 42.2122 77.4703 41.668 78.0338C40.6866 79.1338 39.9371 79.0891 39.3304 78.633C38.1081 77.7028 37.4836 74.6978 36.9036 73.3116C35.61 70.2529 34.6999 66.9707 35.262 63.6348ZM34.575 61.4436C32.3267 64.7169 29.0791 55.5856 28.4278 54.4588C27.607 53.0278 26.8308 51.5432 26.4293 49.9334C26.1081 48.6455 26.0545 47.0088 27.1698 46.0698C27.8032 45.1576 28.4456 44.2364 29.0969 43.2884C30.007 42.8949 30.7029 43.5746 31.2204 44.2632C32.5408 46.6958 33.7988 49.1553 35.1817 51.5611C36.0739 53.1083 36.7877 54.6913 36.5914 56.5158C36.404 58.2329 35.5564 60.0395 34.5839 61.4526L34.575 61.4436ZM43.72 64.699C43.2828 63.7421 42.8546 62.7851 42.4709 61.8014C41.784 60.0395 41.5966 58.2419 41.088 56.471C40.981 56.0865 40.981 55.6751 41.0613 55.2458C41.0613 55.1832 41.0613 55.1206 41.0613 55.058C41.0791 55.0311 41.097 55.0133 41.1148 54.9864C41.5966 53.1172 43.0241 51.4985 44.291 50.1122C44.8353 49.513 45.433 48.726 46.2271 48.4666C47.2888 48.1178 47.7974 49.361 48.1096 50.148C49.1178 51.74 49.9119 53.5376 50.6881 55.2547C52.3743 58.9752 52.7044 62.499 50.3223 66.0495C49.8762 66.7113 49.5015 67.4089 48.984 68.0081C48.529 68.5358 47.958 69.0724 47.262 69.2244C46.4323 69.4033 45.8167 68.8578 45.3527 68.2317C45.2814 68.0797 45.2189 67.9187 45.1475 67.7667C44.6747 66.7382 44.184 65.7186 43.7111 64.699H43.72ZM48.7788 71.4603C48.7788 71.4603 48.7877 71.3083 49.0197 70.7091C49.7156 68.9114 51.3215 66.8634 53.1327 66.1032C55.9074 64.9405 57.0583 69.1171 58.0308 70.9863C58.2093 72.4977 58.2539 73.9287 57.5669 75.3328C57.1922 76.102 56.7193 76.8353 56.2821 77.5776C55.8182 78.3736 55.3453 79.1606 54.7743 79.8761C54.1855 80.6184 53.2844 82.112 52.1513 81.5307C51.5267 81.2087 51.1966 80.4843 50.8844 79.894C50.4383 79.0533 49.9208 78.2484 49.4568 77.4256C49.3409 77.1662 49.2249 76.9069 49.1178 76.6565C48.5557 74.9662 48.3148 73.2222 48.7788 71.4693V71.4603ZM56.4784 62.5973C56.4695 62.7494 56.4338 62.6331 56.3803 61.7656C56.5141 61.2647 56.7282 60.7818 56.9602 60.3078C59.5297 56.9451 62.0636 53.5465 64.5082 50.0854C65.2398 49.6114 65.9179 49.9155 66.5067 50.5594C67.4703 51.6058 67.961 53.4303 68.3803 54.7539C69.3082 57.6426 68.8621 60.1468 67.1313 62.5884C65.2041 65.3161 63.2145 68.0081 61.2963 70.7448C59.61 71.4961 58.7624 68.67 58.2628 67.561C57.5401 65.9601 56.755 64.3413 56.4784 62.5973ZM63.045 70.9684C64.8294 68.4642 66.5959 65.9601 68.3625 63.438C69.674 62.3201 71.0748 62.642 72.0472 64.073C77.0435 71.4066 72.3952 76.254 68.9156 80.4217C68.3536 81.0924 67.6755 82.6575 66.6138 82.4966C65.8197 82.3803 65.213 81.5128 64.8115 80.8867C64.2048 79.9566 63.732 78.946 63.2234 77.9622C62.1885 75.6816 61.9654 72.936 63.2234 70.7985C63.1074 70.9505 63.0182 71.04 63.0539 70.9684H63.045ZM73.3142 59.1094C73.2963 58.9573 73.2785 58.6801 73.2696 58.2329C73.6889 56.8109 74.135 55.4873 74.6792 54.2262C75.9283 52.3839 77.1774 50.5505 78.4443 48.7171C79.1402 48.0463 80.1573 47.3934 81.0852 48.0195C81.8346 48.5203 82.2361 49.4773 82.5573 50.2822C83.5655 52.8042 84.3685 55.523 83.3871 58.1793C82.8161 59.7354 81.79 61.1664 80.8978 62.5615C80.2733 63.5364 79.6755 64.5112 79.051 65.4861C78.6227 66.1658 78.025 67.1585 77.1774 67.3463C76.0978 67.5878 75.4376 66.0227 75.0539 65.2893C74.0636 63.3844 73.4569 61.2469 73.2963 59.1004L73.3142 59.1094ZM79.1224 28.7552C79.4703 27.9324 79.3097 28.3081 79.1224 28.7552C79.9789 26.7161 81.3439 24.8917 82.138 22.8257C82.4949 22.2802 82.8696 21.7435 83.2443 21.2159C83.5655 20.7598 83.9135 20.1158 84.4845 19.928C85.3856 19.6329 86.1083 20.9207 86.5098 21.4842C87.2414 22.933 87.9105 24.4087 88.6243 25.8665C89.0257 26.6803 89.4986 27.3958 89.4718 28.317C89.4361 29.9358 88.5975 31.5456 87.8124 32.9318C86.9112 34.5327 85.8406 36.0531 84.6807 37.493C84.2525 38.0207 83.8153 38.5394 83.3425 39.0223C83.0034 39.3711 82.6108 39.7825 82.0934 39.8541C81.3082 39.9614 80.6837 39.2549 80.2822 38.6914C79.7647 37.967 79.39 37.1442 79.0688 36.3214C78.6495 35.2571 78.3194 34.166 78.2569 33.0213C78.1766 31.5545 78.5335 30.1146 79.1045 28.7642C78.8904 29.274 78.6495 29.8553 79.1045 28.7642L79.1224 28.7552ZM73.903 36.0263C74.9023 35.0693 75.7499 35.5612 76.4101 36.4377C77.1238 37.9491 77.8198 39.4606 78.5246 40.981C78.8101 42.1526 79.0331 43.5477 78.7209 44.7372C78.4264 45.8641 77.7305 46.8658 77.0792 47.8048C76.3655 48.8333 75.732 49.9065 74.9915 50.9082C74.367 51.7578 73.68 52.5538 73.0644 53.4124C72.7075 53.9132 72.1989 54.6823 71.5387 54.7628C70.6108 54.888 70.1112 53.0636 69.8524 52.4375C68.7729 49.9065 67.6666 47.4203 68.2286 44.612C70.0309 41.8842 71.7974 39.1386 73.564 36.393C73.68 36.2767 73.787 36.1515 73.903 36.0352V36.0263ZM60.4665 30.2398C61.0911 27.6105 63.0539 25.6161 64.2405 23.255C64.7223 22.298 65.2041 20.6167 66.5781 21.0817C67.5684 21.4126 68.2108 22.7452 68.6926 23.5859C69.8971 25.7234 71.6101 27.5747 72.6183 29.8374C74.5276 34.1213 70.9052 38.7183 68.0324 41.607C67.158 42.4835 65.9803 42.6176 65.0167 42.1257C64.6688 41.9469 64.2851 40.7842 64.1067 40.4533C63.7855 39.863 63.4643 39.2817 63.1342 38.7004C62.5275 37.6003 61.8584 36.5182 61.2963 35.3913C60.5201 33.8262 60.0651 31.9391 60.4665 30.2309V30.2398ZM58.0308 33.6026C59.7082 34.1392 60.2078 36.3304 60.9126 37.7345C61.8673 39.6484 63.0539 41.5355 63.4554 43.6729C63.5089 43.7803 63.5625 43.8965 63.616 44.0038C63.7052 44.7104 63.8301 45.4259 63.7944 46.1413C63.7587 47.0267 63.4286 47.8048 63.0004 48.565C62.1171 50.157 61.0554 51.57 60.0204 53.0546C59.0301 54.4767 58.1647 55.9792 57.0583 57.3117C56.5766 57.8931 55.9966 58.6622 55.1491 58.537C54.355 58.4207 53.7394 57.6874 53.2933 57.0703C52.7401 55.9255 52.178 54.7807 51.607 53.6449C51.268 52.8579 50.9022 52.0709 50.5364 51.2838C49.5996 49.3252 48.6003 46.4007 49.3676 44.2364C50.2598 41.7501 52.3029 40.024 53.8732 37.9849C54.7119 36.8938 56.2732 33.0213 58.0219 33.5847L58.0308 33.6026ZM41.0702 30.6423C41.1327 30.3472 41.2397 30.052 41.3914 29.7748C41.3646 29.8374 41.3468 29.9089 41.32 29.9715C41.7572 28.6121 42.8189 27.6641 43.7289 26.6535C45.0851 25.1421 47.6635 20.1069 50.2063 21.046C51.4643 21.511 52.0888 23.1387 52.6777 24.2567C53.9357 26.6624 55.0955 29.3187 55.1401 32.109C55.1758 33.9424 54.0784 35.3108 53.0167 36.6434C51.723 38.2621 50.581 40.0061 49.3141 41.6428C48.5022 42.394 47.4762 43.1274 46.4591 42.242C45.5044 41.4192 44.9156 40.0866 44.3089 39.0223C43.0866 36.8848 40.4457 33.3879 41.0702 30.6423ZM38.6613 33.0481C39.1877 33.4863 39.5892 34.0587 39.9996 34.6132C41.2843 36.7954 42.4353 39.076 43.5594 41.3566C43.9163 42.5461 44.2018 43.7624 44.4338 44.9876C44.6568 46.1861 44.4338 47.1609 43.9431 48.2609C43.0509 49.5577 42.1676 51.0871 40.9364 52.0888C40.41 52.518 39.7587 52.8579 39.0628 52.8221C38.2776 52.7774 37.7245 52.205 37.2159 51.6595C35.833 49.1732 34.4412 46.6869 33.0494 44.2006C32.4962 42.6534 31.604 40.65 32.2018 39.0134C33.772 36.9296 35.3245 34.81 36.9661 32.7708C37.5282 32.5741 38.117 32.6009 38.6523 33.0481H38.6613ZM24.7162 26.2332C25.3229 24.677 26.6166 23.5322 27.8211 22.4411C28.6508 21.6809 30.3014 19.454 31.5415 19.7044C33.1743 20.0264 33.656 22.0119 34.0218 23.3892C34.5929 25.5535 36.0204 27.53 35.949 29.8374C35.8955 31.5277 34.9319 32.9855 33.9683 34.3002C33.085 35.4986 31.2025 38.1548 29.2486 37.4304C28.3653 36.071 27.4553 34.7205 26.5809 33.3611C25.6709 31.6171 24.5913 29.5423 24.3951 27.5389C24.4486 27.1007 24.5467 26.6625 24.7162 26.2332ZM17.0523 33.1107C16.8114 33.1286 14.7415 29.5512 14.5363 29.1935C13.7244 27.7983 13.0017 26.3137 12.6538 24.7217C12.8233 23.6843 13.082 22.6558 13.4032 21.6541C13.7333 20.6167 14.0723 19.5077 14.5898 18.5507C15.598 17.9605 16.4813 19.3646 17.0166 20.0353C17.8196 21.037 18.4619 22.2533 19.14 23.3444C19.7289 24.2924 20.398 25.3388 20.3802 26.5015C20.3534 27.6552 19.7021 28.639 19.14 29.5959C18.8545 30.0878 17.8106 32.8156 17.0523 33.1107ZM23.4582 49.5935C23.262 50.0496 23.0746 50.5236 22.914 51.0066C22.8516 51.1229 22.7802 51.2391 22.7088 51.3375C21.0047 46.8032 19.2203 42.3314 17.3735 37.8597C17.4092 37.7702 17.4448 37.6898 17.4716 37.6003C19.3541 40.9899 21.1921 44.4063 23.1103 47.7869L23.2977 48.1715C23.4672 48.6366 23.5742 49.1195 23.4672 49.6025L23.4582 49.5935ZM20.63 40.1492C20.175 39.2728 19.6932 38.4142 19.1936 37.5645C18.8991 36.5629 18.7028 35.5165 18.8099 34.4701C18.917 33.4506 19.3006 32.4668 19.7735 31.5635C20.059 31.0716 20.3445 30.5886 20.6478 30.1146C21.4419 29.0056 22.227 29.4439 22.9051 30.1415C23.7259 31.6887 24.5646 33.227 25.4478 34.7384C26.3311 36.2499 27.3215 37.6898 28.2583 39.1744C28.5259 40.5427 28.0887 41.8485 27.4196 43.029C27.0627 43.5209 26.7148 44.0128 26.3757 44.5047C25.7244 45.4527 24.2523 45.9804 23.4672 44.8982C22.4144 43.4315 21.6203 41.6785 20.63 40.1492ZM29.7215 68.7773C29.5163 68.6431 29.3021 68.3301 29.0702 67.7577C28.3832 66.0048 27.7765 64.2161 27.1073 62.4542C26.2687 60.2273 25.4122 58.0093 24.3772 55.8718C24.056 54.575 23.8241 53.3766 23.949 51.9814C24.3415 51.2928 24.6806 51.1676 24.9482 51.579C26.5988 54.9685 28.3296 58.3134 29.9534 61.703C30.4352 63.0177 30.8813 64.386 31.0419 65.7812C31.1668 66.8455 30.5423 69.3139 29.7036 68.7773H29.7215ZM35.4761 85.108C34.4769 84.2584 34.0129 82.6396 33.5847 81.5128C33.0761 80.1355 32.6925 78.7224 32.2285 77.3362C31.7646 75.9499 31.2114 74.5995 31.0508 73.1327C30.9616 72.2921 31.0508 70.9237 31.5237 70.2082C32.3178 69.0187 33.2546 70.2798 33.7899 71.1473C34.4947 72.2742 35.0568 73.4994 35.5921 74.7157C36.2167 76.1199 36.7074 77.5776 37.0821 79.0712C37.323 80.0371 37.5193 80.9762 37.5103 81.9778C37.4925 82.9974 37.4568 85.3316 36.0828 85.4837C36.2077 85.5194 36.3683 85.5999 36.5022 85.6268C36.1096 85.5373 35.7706 85.3585 35.4761 85.108ZM43.836 97.0476C43.381 98.0582 43.1401 99.0509 42.9438 100.142C42.5691 101.036 42.1676 102.092 41.4717 102.789C40.6598 103.612 40.0888 101.975 39.8033 101.385C38.572 98.8542 37.8761 96.0101 37.0821 93.3181C36.1542 90.7782 36.0739 87.639 38.233 85.6625C39.2858 84.6966 40.1602 85.8146 40.6598 86.7626C41.32 88.0326 41.8196 89.4009 42.2747 90.7603C43.0955 92.7726 43.604 94.8028 43.8539 96.9939C43.8539 97.0118 43.8539 97.0207 43.8539 97.0386L43.836 97.0476ZM46.6553 91.8961C45.8613 92.558 44.9959 91.5831 44.523 90.9929C43.7289 89.079 42.9617 87.1561 42.1854 85.2333C41.9089 84.2942 41.5431 83.3372 41.5431 82.3445C42.0248 80.4127 43.1669 78.8923 44.3178 77.3272C44.7104 76.7817 45.1565 76.093 45.7988 75.8158C46.584 75.467 47.2442 76.4865 47.7706 76.9069C48.6806 79.0086 49.5996 81.1014 50.5275 83.1941C50.5007 84.3121 50.5632 85.3227 50.1171 86.378C49.7156 87.3439 49.1535 88.274 48.6182 89.1684C48.3238 89.6603 48.0115 90.1343 47.6724 90.5904C47.3691 91.0197 47.0568 91.5473 46.6553 91.8872V91.8961ZM57.1297 99.3639C57.0405 99.5518 56.9602 99.7306 56.8799 99.9184C56.0591 101.224 55.3899 103.111 53.9267 103.818C52.0353 104.739 50.5096 102.7 49.5371 101.385C48.4665 99.4355 47.6903 97.5037 47.3869 95.2768C47.4405 94.6776 47.5297 94.0784 47.6635 93.497C47.8152 93.2466 47.9758 93.0141 48.1364 92.7637C48.4933 91.5384 49.1624 90.4294 49.9029 89.4099C50.3669 88.7659 51.0628 87.7195 51.9818 87.809C52.9543 87.8984 53.6056 89.0879 53.9624 89.8749C54.5156 91.0733 54.8992 92.3433 55.2918 93.5954C55.8004 94.6418 56.3178 95.6792 56.8353 96.7256C57.0673 97.5126 57.1922 98.3086 57.1387 99.0956C57.1565 98.9883 57.1743 98.9794 57.1208 99.3818L57.1297 99.3639ZM57.8346 94.4361C58.6286 95.08 58.0398 94.606 57.8346 94.4361C57.4688 94.132 57.1208 93.8011 56.7996 93.4434C55.961 91.7978 55.1491 90.1432 54.3639 88.4797C54.0338 87.3797 53.7661 86.2528 54.0338 85.117C54.1766 84.5446 54.3996 83.9991 54.6494 83.4625C54.7743 83.2031 54.8992 82.9437 55.0331 82.6844C55.1312 82.4876 55.3899 82.1656 55.3721 81.9421C56.4695 80.2517 57.6294 78.6061 58.7981 76.9605C58.9409 76.9069 59.1015 76.8622 59.2532 76.8443C60.5825 76.6028 61.3141 77.685 61.9654 78.6598C62.2777 79.3574 62.6167 80.0103 62.929 80.5827C63.1699 81.0745 63.4108 81.5754 63.6517 82.0762C63.9283 83.0689 64.3654 84.1332 64.419 85.1706C64.4457 85.6268 64.3744 86.0829 64.2584 86.5301C64.1335 87.0219 63.848 87.5496 63.8123 88.0594C62.5543 90.0091 61.3677 91.9945 60.181 93.9889C59.503 94.6686 58.8963 95.3126 57.8256 94.445L57.8346 94.4361ZM69.8168 96.7167C69.674 97.3874 69.442 98.0314 69.1744 98.6485C68.8443 99.7396 68.3179 100.759 67.6844 101.698C67.1223 102.539 66.4621 103.353 65.5074 103.746C64.7669 104.301 64.0532 104.274 63.3751 103.907C63.3751 103.728 63.1877 103.612 63.0718 103.496C62.1706 102.914 61.4212 101.931 60.868 101.018C60.2435 99.99 59.9669 98.8095 60.2078 97.62C60.4665 96.3768 61.1981 95.3125 61.8584 94.2572C62.5989 93.0856 63.3573 91.923 64.1245 90.7693C64.3744 90.2416 64.6956 89.7676 65.097 89.4277C65.1238 89.392 65.1416 89.3473 65.1684 89.3115C65.2398 89.2668 65.3022 89.2399 65.3736 89.222C66.6227 88.4261 67.7647 90.1879 68.3089 91.1002C69.3082 92.7726 70.2272 94.7133 69.7989 96.7167H69.8168ZM72.1632 92.4506C70.4056 94.606 68.648 88.1935 68.4339 87.2455C68.3268 86.7894 68.2108 86.3065 68.2019 85.8325C68.1751 84.643 68.8353 83.4177 69.5134 82.4876C71.3959 79.894 73.2963 77.3272 75.1164 74.6889C76.6599 73.6515 77.4986 75.8516 77.9357 76.9605C78.6138 78.6956 79.051 80.6363 78.6852 82.5055C78.364 84.1779 77.338 85.6089 76.3119 86.9236C75.1521 88.4082 74.0279 89.9017 72.9751 91.4758C72.6985 91.7978 72.4309 92.1197 72.1632 92.4417C71.9491 92.7011 70.4591 94.5345 72.1632 92.4417V92.4506ZM78.7298 92.1018C78.3015 93.7832 77.9625 95.4914 77.6056 97.1907C77.2666 98.8005 76.8205 100.383 76.4993 102.002C75.8212 102.7 74.9469 102.44 74.3313 101.797C73.8049 100.741 73.1803 99.7127 72.8859 98.5501C72.5915 97.4053 72.6718 96.0638 72.8056 94.9011C74.9737 91.3416 77.4094 87.9878 79.6934 84.5088C80.3625 84.0974 80.3714 85.4926 80.4428 85.8772C79.845 87.9431 79.2562 90.018 78.7298 92.0929V92.1018ZM83.4941 76.1556C83.0123 77.05 82.2272 78.4273 80.996 78.1411C79.0064 75.3597 78.4443 71.6392 79.6041 68.4285C80.2465 66.6398 81.219 64.9852 82.1915 63.3665C82.932 62.1412 83.6547 60.3883 85.0019 59.7175C86.0547 59.1899 86.8666 59.9232 87.3573 60.8176C88.6421 63.1608 87.5179 65.1909 86.6347 67.4358C85.5105 70.3066 84.4755 73.2222 83.4852 76.1556H83.4941ZM89.4005 60.3525C88.8741 60.4777 88.4547 58.6622 88.3655 58.3313C88.08 57.2849 88.1157 56.3548 88.3209 55.2905C91.2384 51.1676 94.0934 47.0089 96.9038 42.8144C96.9306 42.8949 96.9752 42.9575 97.0377 43.0111C94.254 48.6813 91.6666 54.4588 89.4005 60.3525ZM102.391 32.2521C102.266 32.4757 102.07 32.8334 102.391 32.2521C101.775 33.3432 100.829 34.2286 100.178 35.3018C99.7499 36.0084 99.3485 37.019 98.5098 37.4036C96.8949 38.1369 96.083 35.0157 95.7351 34.1213C95.0481 32.3416 94.0845 30.4813 94.2451 28.5048C94.3968 26.6088 95.5834 25.0169 96.2882 23.3086C96.7968 22.0923 99.0451 16.0108 100.74 19.2662C101.954 21.5915 103.096 24.9811 103.292 27.6015C103.408 29.0861 103.131 30.9195 102.391 32.2432V32.2521Z" fill="#C7C8C8"/>
<path d="M110.18 9.13325C110.331 9.17797 110.412 9.2048 110.447 9.2048C110.412 9.19586 110.305 9.16008 110.18 9.13325Z" fill="#DEDEDE"/>
<path d="M110.064 9.10642C110.064 9.10642 110.144 9.12431 110.18 9.1422C110.144 9.13325 110.108 9.12431 110.064 9.10642Z" fill="#DEDEDE"/>
<path d="M110.01 9.08854C110.01 9.08854 110.046 9.08853 110.064 9.10651C110.046 9.10651 110.028 9.09752 110.01 9.08854Z" fill="#DEDEDE"/>
<path d="M109.644 8.98121C109.555 8.95438 109.475 8.93649 109.439 8.91861C109.475 8.92755 109.546 8.94544 109.644 8.98121Z" fill="#DEDEDE"/>
<path d="M32.8352 15.7425C32.8352 15.7425 32.6211 15.7693 32.2821 15.8945C31.9341 16.0108 31.4791 16.2612 30.9795 16.6189C30.7296 16.8068 30.4709 17.0125 30.2211 17.2629C29.9802 17.5043 29.7125 17.7995 29.4449 18.0767C28.9096 18.6581 28.3475 19.2752 27.7765 19.8923C27.1965 20.5094 26.6345 21.1354 26.0902 21.6988C25.5549 22.2801 25.0285 22.7899 24.5913 23.255C24.1542 23.7111 23.7616 24.0688 23.5029 24.3282C23.2352 24.5876 23.0835 24.7307 23.0835 24.7307C23.0835 24.7307 23.2084 24.5518 23.4315 24.2656C23.6635 23.9705 23.9668 23.5412 24.3772 23.0582C24.7787 22.5663 25.2426 21.994 25.7512 21.3947C26.2687 20.7955 26.8218 20.1606 27.3928 19.5435C27.9638 18.9264 28.5527 18.3093 29.1148 17.7548C29.4092 17.4775 29.6679 17.2271 29.9624 16.9856C30.2479 16.7441 30.5423 16.5474 30.8099 16.3864C31.3631 16.0466 31.8895 15.8856 32.2464 15.814C32.6122 15.7425 32.8263 15.7604 32.8263 15.7604L32.8352 15.7425Z" fill="white"/>
<path d="M50.4115 16.61C50.4115 16.61 50.3401 16.61 50.2063 16.6189C50.0725 16.6368 49.8851 16.6905 49.671 16.8157C49.4568 16.932 49.2159 17.1108 48.9751 17.3702C48.7342 17.6206 48.52 17.9426 48.2881 18.2914C48.0561 18.667 47.7974 19.0605 47.5119 19.4719C47.2264 19.8833 46.923 20.3126 46.584 20.7419C45.9237 21.6094 45.1832 22.5037 44.4338 23.3892C42.917 25.1421 41.3289 26.8324 40.0085 27.9861C39.839 28.1202 39.6784 28.2633 39.4732 28.3707C39.2858 28.4512 39.1074 28.5048 38.9289 28.5585C38.8397 28.5853 38.7505 28.5943 38.6613 28.6121C38.5721 28.6121 38.4828 28.6121 38.4025 28.6032C38.3222 28.5764 38.2509 28.5495 38.1795 28.5227C38.117 28.478 38.0635 28.4333 38.01 28.3975C37.8226 28.2186 37.7155 28.0398 37.6442 27.9235C37.5728 27.8072 37.5371 27.7446 37.5371 27.7446C37.5371 27.7446 37.5817 27.7983 37.6709 27.9056C37.7512 28.0129 37.8851 28.165 38.0724 28.317C38.2598 28.478 38.5542 28.5227 38.8665 28.3796C39.0181 28.317 39.1966 28.2365 39.3661 28.1471C39.4999 28.0576 39.6516 27.9145 39.8033 27.7714C40.4189 27.1722 41.0791 26.412 41.8018 25.6071C42.5156 24.7933 43.2828 23.9347 44.0323 23.0493C44.7907 22.1818 45.5312 21.2964 46.2182 20.4646C46.5572 20.0443 46.8873 19.6418 47.1996 19.2573C47.5029 18.8727 47.7884 18.4971 48.0383 18.1483C48.1721 17.9694 48.3059 17.8084 48.4308 17.6474C48.5557 17.4864 48.7163 17.3702 48.8412 17.245C49.1089 17.0035 49.3855 16.8425 49.6264 16.7441C49.8673 16.6458 50.0725 16.6189 50.2063 16.6189C50.3401 16.6189 50.4115 16.6368 50.4115 16.6368V16.61Z" fill="white"/>
<path d="M28.517 37.8239C28.517 37.8239 28.5973 37.8865 28.74 37.976C28.8828 38.0654 29.0969 38.1906 29.3557 38.28C29.4895 38.3158 29.6322 38.3605 29.7839 38.3695C29.9356 38.3874 30.0873 38.3605 30.2389 38.3337C30.3906 38.289 30.5423 38.2264 30.685 38.1369C30.7564 38.0922 30.8367 38.0386 30.8902 38.0028L31.1222 37.815C31.2739 37.6987 31.4345 37.5735 31.5862 37.4572C31.7378 37.341 31.8984 37.2336 32.0323 37.1084C32.3088 36.8759 32.5854 36.6702 32.8174 36.4913C33.2813 36.1246 33.6114 35.8921 33.6114 35.8921C33.6114 35.8921 33.4062 36.2499 33.0315 36.7149C32.8442 36.9474 32.5943 37.2068 32.3267 37.4751C32.059 37.7524 31.7467 37.9849 31.4434 38.2353L31.2114 38.4142C31.1044 38.4857 31.0241 38.5304 30.9259 38.5931C30.7297 38.7004 30.5244 38.763 30.3103 38.7987C30.0962 38.8256 29.891 38.8166 29.7036 38.763C29.5163 38.7272 29.3557 38.6467 29.2129 38.5662C28.9363 38.4052 28.7579 38.2085 28.6508 38.0654C28.5438 37.9223 28.4992 37.8329 28.4992 37.8329L28.517 37.8239Z" fill="white"/>
<path d="M15.6961 13.8465C15.6961 13.8465 15.5623 13.9717 15.375 14.231C15.1876 14.4814 14.9378 14.8571 14.7058 15.349C14.5809 15.5815 14.4649 15.8498 14.3579 16.136C14.2329 16.4132 14.1437 16.7263 14.0367 17.0482C13.8315 17.6921 13.6262 18.3987 13.3854 19.0784C12.9303 20.4557 12.4218 21.824 12.0024 22.8346C11.7972 23.3444 11.601 23.7558 11.4761 24.051C11.3511 24.3461 11.2619 24.5071 11.2619 24.5071C11.2619 24.5071 11.2976 24.3282 11.369 24.0152C11.4493 23.7022 11.5474 23.255 11.6902 22.7363C11.9757 21.6809 12.4039 20.2858 12.8768 18.9085C13.0017 18.5686 13.1177 18.2198 13.2426 17.8889C13.3675 17.5491 13.4835 17.2182 13.6173 16.9051C13.7512 16.5832 13.8671 16.2701 14.0188 15.9839C14.1616 15.6978 14.3132 15.4384 14.4649 15.2059C14.6077 14.9644 14.7772 14.7766 14.911 14.5977C15.0538 14.4278 15.1876 14.2847 15.3036 14.1684C15.5355 13.9448 15.6872 13.8465 15.6872 13.8465H15.6961Z" fill="white"/>
<path d="M3.44629 10.5284C3.44629 10.5284 3.32138 10.6447 3.11617 10.8683C2.91097 11.0829 2.65223 11.4317 2.42919 11.87C2.19721 12.3082 2.04554 12.8627 2.09015 13.4619C2.09908 13.605 2.13476 13.766 2.15261 13.9001C2.19722 14.0522 2.2329 14.231 2.28643 14.3741C2.38457 14.6603 2.53625 14.9733 2.68792 15.2595C3.00019 15.8498 3.37491 16.4132 3.74072 16.932C4.11544 17.4507 4.48123 17.9157 4.80242 18.3182C5.12361 18.7117 5.4002 19.0516 5.59649 19.2751C5.79277 19.4987 5.90875 19.6329 5.90875 19.6329C5.90875 19.6329 5.33774 19.2394 4.5883 18.5239C4.21358 18.1662 3.79425 17.7279 3.38384 17.2181C2.97343 16.7173 2.56301 16.1449 2.22398 15.5189C2.05446 15.2059 1.91171 14.8839 1.79573 14.5351C1.72435 14.3562 1.70651 14.2042 1.6619 14.0343C1.62621 13.8375 1.61729 13.6765 1.60837 13.4977C1.59945 12.7911 1.84926 12.1561 2.15261 11.7179C2.45595 11.2707 2.80391 10.9845 3.0448 10.8057C3.2857 10.6268 3.44629 10.5463 3.44629 10.5463V10.5284Z" fill="white"/>
<path d="M45.7007 43.0469C45.7007 43.0469 45.8791 43.1542 46.1111 43.2615C46.2271 43.3241 46.3698 43.3689 46.5037 43.4225C46.6464 43.4583 46.7981 43.503 46.9498 43.512C47.1014 43.5299 47.2531 43.512 47.4048 43.512C47.4762 43.4941 47.5475 43.4851 47.6278 43.4762C47.6992 43.4583 47.7706 43.4404 47.833 43.4315C47.9669 43.4046 48.0739 43.3689 48.1542 43.351C48.2345 43.3331 48.2881 43.3241 48.2881 43.3241C48.2881 43.3241 48.2613 43.3689 48.2078 43.4404C48.1542 43.503 48.0918 43.6193 47.9669 43.7087C47.8598 43.816 47.6992 43.9055 47.5208 43.977C47.4226 44.0038 47.3245 44.0396 47.2264 44.0486C47.1193 44.0486 47.0122 44.0665 46.9052 44.0486C46.7981 44.0307 46.691 44.0128 46.5929 43.977C46.4858 43.9502 46.4055 43.8965 46.3163 43.8518C46.1468 43.7445 46.013 43.6282 45.9237 43.503C45.7364 43.2615 45.7007 43.0558 45.7007 43.0558V43.0469Z" fill="white"/>
<path d="M37.4122 53.0904C37.4122 53.0904 37.5996 53.2335 37.8405 53.3945C37.9654 53.475 38.1081 53.5644 38.2687 53.6181C38.3401 53.6539 38.4293 53.6717 38.5096 53.6986C38.5899 53.7165 38.6702 53.7343 38.7594 53.7343C38.9289 53.7612 39.0985 53.7343 39.2769 53.7075C39.3572 53.6807 39.4464 53.6717 39.5267 53.6539C39.607 53.627 39.6873 53.6091 39.7587 53.5823C39.9103 53.5465 40.0263 53.4929 40.1156 53.466C40.2048 53.4392 40.2672 53.4213 40.2672 53.4213C40.2672 53.4213 40.2405 53.466 40.178 53.5465C40.1156 53.6181 40.0353 53.7433 39.9014 53.8417C39.7765 53.9579 39.607 54.0653 39.4107 54.1547C39.3037 54.1815 39.1966 54.2352 39.0806 54.2441C38.9646 54.2441 38.8397 54.2799 38.7148 54.262C38.465 54.2441 38.233 54.1547 38.0457 54.0295C37.8583 53.9043 37.7155 53.7522 37.6263 53.6091C37.439 53.3229 37.4122 53.0904 37.4122 53.0904Z" fill="white"/>
<path d="M31.3096 62.0518C31.3096 62.0518 31.4702 62.2128 31.7111 62.4453C31.827 62.5616 31.9609 62.6868 32.1036 62.812C32.175 62.8746 32.2553 62.9372 32.3267 62.9908C32.3981 63.0534 32.4873 63.0892 32.5676 63.1429C32.6479 63.1787 32.7282 63.2323 32.8174 63.2502C32.8977 63.2681 32.9869 63.3128 33.0672 63.3128C33.1564 63.3307 33.2367 63.3307 33.317 63.3307C33.3973 63.3307 33.4776 63.3307 33.5579 63.3039C33.6293 63.286 33.7096 63.286 33.772 63.2681C33.8345 63.2502 33.888 63.2323 33.9416 63.2234C34.0397 63.1965 34.1021 63.1876 34.1021 63.1876C34.1021 63.1876 34.0665 63.2323 34.004 63.3128C33.9326 63.3933 33.8345 63.5096 33.6739 63.599C33.5936 63.6527 33.5133 63.7063 33.4062 63.7242C33.2992 63.76 33.1921 63.7958 33.0672 63.7868C32.9423 63.7958 32.8174 63.7868 32.6925 63.751C32.5676 63.7242 32.4516 63.6616 32.3356 63.6169C32.1215 63.4827 31.9252 63.3217 31.7914 63.1429C31.6486 62.964 31.5505 62.7851 31.4791 62.6242C31.3363 62.3022 31.3274 62.0607 31.3274 62.0607L31.3096 62.0518Z" fill="white"/>
<path d="M45.1743 69.4838C45.1743 69.4838 45.3349 69.5822 45.5758 69.7253C45.6918 69.7879 45.8167 69.8684 45.9594 69.931C46.1022 69.9936 46.236 70.0562 46.3877 70.083C46.5304 70.1277 46.6821 70.1277 46.8249 70.1367C46.8962 70.1367 46.9676 70.1277 47.039 70.1277C47.1104 70.1277 47.1728 70.1098 47.2442 70.1009C47.378 70.083 47.4851 70.0562 47.5654 70.0383C47.6457 70.0204 47.6992 70.0204 47.6992 70.0204C47.6992 70.0204 47.6725 70.0651 47.6189 70.1277C47.5654 70.1903 47.4851 70.2977 47.3602 70.3781C47.2977 70.4229 47.2353 70.4765 47.1461 70.5034C47.0658 70.5391 46.9765 70.5838 46.8873 70.6017C46.7892 70.6107 46.691 70.6554 46.575 70.6375C46.468 70.6375 46.3609 70.6286 46.2539 70.6017C46.0487 70.5481 45.8524 70.4497 45.7007 70.3245C45.549 70.2082 45.433 70.0651 45.3527 69.9399C45.1921 69.6895 45.1654 69.4838 45.1654 69.4838H45.1743Z" fill="white"/>
<path d="M45.2992 42.5103C45.2992 42.5103 45.4598 42.6623 45.6918 42.8949C45.9148 43.1184 46.2182 43.3957 46.5304 43.5656C46.6107 43.5925 46.691 43.6551 46.7713 43.664C46.8516 43.6908 46.9319 43.7177 47.0122 43.7177C47.1728 43.7355 47.3423 43.7266 47.494 43.6998C47.5654 43.6819 47.6457 43.6819 47.6992 43.664C47.7617 43.6461 47.8152 43.6282 47.8598 43.6193C47.958 43.5924 48.0115 43.5835 48.0115 43.5835C48.0115 43.5835 47.9758 43.6282 47.9133 43.7087C47.8777 43.7445 47.842 43.7981 47.7884 43.8429C47.7438 43.8965 47.6725 43.9323 47.5922 43.986C47.5208 44.0396 47.4316 44.0933 47.3334 44.1201C47.2353 44.1559 47.1282 44.2006 47.0033 44.1917C46.8873 44.2006 46.7624 44.2006 46.6375 44.1648C46.5126 44.1469 46.3966 44.0843 46.2806 44.0396C46.1825 43.9681 46.0665 43.9144 45.9773 43.825C45.8791 43.7534 45.8078 43.664 45.7364 43.5746C45.5936 43.4046 45.4955 43.2258 45.433 43.0648C45.2992 42.7428 45.2992 42.5103 45.2992 42.5103Z" fill="white"/>
<path d="M23.3423 45.7925C23.3423 45.7925 23.4761 45.9088 23.6724 46.0787C23.8597 46.2308 24.0917 46.4275 24.3237 46.4991C24.4397 46.5527 24.5557 46.5527 24.6806 46.5617C24.8055 46.5527 24.9304 46.5348 25.0464 46.508C25.1623 46.4901 25.2605 46.4454 25.3408 46.4275C25.4211 46.4096 25.4657 46.4007 25.4657 46.4007C25.4657 46.4007 25.4478 46.4454 25.4032 46.517C25.3586 46.5796 25.3051 46.6958 25.198 46.7763C25.0999 46.8747 24.9482 46.9731 24.7698 47.0267C24.6716 47.0357 24.5735 47.0804 24.4664 47.0625C24.3594 47.0625 24.2523 47.0446 24.1542 47.0089C24.0471 46.9731 23.9668 46.9194 23.8776 46.8658C23.7973 46.8032 23.7259 46.7406 23.6635 46.669C23.5386 46.5349 23.4672 46.3828 23.4226 46.2576C23.3244 45.9982 23.3423 45.8015 23.3423 45.8015V45.7925Z" fill="white"/>
<path d="M64.4725 42.8501C64.4725 42.8501 64.6956 43.0201 65.0078 43.2258C65.1684 43.3241 65.3558 43.4315 65.561 43.512C65.6591 43.5477 65.7662 43.5835 65.8733 43.6103C65.9803 43.6372 66.0874 43.6551 66.2034 43.6551C66.3104 43.6819 66.4264 43.6461 66.5335 43.6372C66.6405 43.6103 66.7476 43.5835 66.8547 43.5567C66.9528 43.512 67.0599 43.4762 67.158 43.4404C67.2472 43.3868 67.3365 43.342 67.4257 43.2973C67.6041 43.2168 67.729 43.1095 67.8361 43.0648C67.9342 43.0111 67.9967 42.9754 67.9967 42.9754C67.9967 42.9754 67.9699 43.0379 67.9075 43.1363C67.8361 43.2347 67.7647 43.3957 67.613 43.5388C67.5417 43.6103 67.4614 43.6998 67.3632 43.7713C67.2651 43.8429 67.158 43.9144 67.0331 43.986C66.9082 44.0396 66.7744 44.1022 66.6316 44.138C66.48 44.1559 66.3372 44.2006 66.1855 44.1827C66.0339 44.1827 65.8822 44.1469 65.7394 44.1022C65.5967 44.0664 65.4718 43.986 65.3469 43.9234C65.1149 43.7803 64.9365 43.6014 64.8026 43.4404C64.5439 43.1095 64.4725 42.8323 64.4725 42.8323V42.8501Z" fill="white"/>
<path d="M56.7818 27.9861C56.7818 27.9861 56.8353 28.0398 56.9334 28.1202C57.0316 28.2007 57.1922 28.3081 57.4063 28.4154C57.6204 28.5138 57.897 28.6032 58.2093 28.5585C58.5216 28.5138 58.816 28.2991 59.0658 28.004C59.1193 27.9235 59.1818 27.843 59.2442 27.7625C59.2978 27.6641 59.3513 27.5747 59.4048 27.4763C59.5119 27.2796 59.6279 27.0739 59.7439 26.8682C59.9758 26.4478 60.2167 26.0006 60.4844 25.5535C60.984 24.6412 61.5104 23.6664 62.0457 22.6826C62.59 21.7078 63.1253 20.7419 63.6338 19.8296C63.8926 19.3735 64.1424 18.9353 64.3833 18.5239C64.4993 18.3182 64.6242 18.1125 64.7312 17.9157C64.8383 17.719 64.9454 17.5312 65.0524 17.3434C65.4718 16.61 65.9625 16.0644 66.3907 15.8051C66.6049 15.662 66.8101 15.653 66.9439 15.6441C67.0688 15.6709 67.1402 15.6799 67.1402 15.6799C67.1402 15.6799 67.0688 15.6799 66.9439 15.6799C66.819 15.7067 66.6405 15.7514 66.4532 15.9035C66.0695 16.1807 65.6859 16.771 65.3201 17.5043C65.1506 17.871 64.9364 18.3003 64.7312 18.7207C64.5171 19.1499 64.2941 19.6061 64.0532 20.0622C63.5714 20.9923 63.0539 21.9761 62.5097 22.9599C61.9565 23.9347 61.4212 24.9185 60.8859 25.8128C60.6093 26.26 60.3327 26.6803 60.074 27.0828C59.9401 27.2796 59.8152 27.4763 59.6993 27.6731C59.6368 27.7714 59.5744 27.8609 59.5208 27.9503C59.4494 28.0398 59.3691 28.1292 59.2978 28.2186C59.0033 28.5495 58.6108 28.7642 58.2361 28.7731C57.8703 28.7821 57.5758 28.6479 57.3617 28.5227C57.1476 28.3885 57.0137 28.2544 56.9156 28.156C56.8264 28.0576 56.7818 28.004 56.7818 28.004V27.9861Z" fill="white"/>
<path d="M74.5543 28.791C74.5543 28.791 74.8041 28.9878 75.3038 29.1487C75.5536 29.2292 75.8748 29.2829 76.2227 29.2292C76.5707 29.1756 76.9365 28.9967 77.2488 28.6926C77.338 28.63 77.4004 28.5316 77.4718 28.4422C77.5432 28.3528 77.6146 28.2633 77.677 28.165C77.7395 28.0666 77.8108 27.9593 77.8644 27.8609C77.9179 27.7446 77.9714 27.6283 78.0339 27.5031C78.2659 27.0202 78.5068 26.5194 78.7566 26.0006C79.0153 25.4819 79.274 24.9453 79.5149 24.3908C79.7647 23.8453 80.0146 23.2818 80.2733 22.7273C80.7908 21.6183 81.2904 20.4915 81.7811 19.4451C82.2629 18.3987 82.7358 17.4239 83.1105 16.5921C83.4852 15.7335 84.0205 15.0807 84.538 14.8571C84.6629 14.7945 84.7878 14.7855 84.8949 14.7676C85.0019 14.7766 85.0912 14.7676 85.1625 14.7945C85.2964 14.8392 85.3767 14.866 85.3767 14.866C85.3767 14.866 85.3053 14.8481 85.1625 14.8213C85.0912 14.8124 85.0019 14.8213 84.9038 14.8213C84.8057 14.8571 84.6986 14.875 84.5826 14.9465C84.1187 15.188 83.6993 15.8587 83.3871 16.6994C83.2265 17.1377 83.0391 17.5938 82.8428 18.0946C82.6465 18.5865 82.4324 19.1052 82.2094 19.6329C81.7633 20.6972 81.2726 21.833 80.7551 22.9509C80.4963 23.5144 80.2376 24.0688 79.9789 24.6233C79.7291 25.1778 79.4436 25.7055 79.1759 26.2153C78.8993 26.7251 78.6317 27.2169 78.3818 27.682C78.3194 27.7983 78.2569 27.9145 78.1945 28.0219C78.1231 28.1471 78.0428 28.2454 77.9714 28.3528C77.9001 28.4601 77.8198 28.5585 77.7305 28.6479C77.6413 28.7373 77.5699 28.8357 77.4629 28.9073C77.0971 29.2292 76.651 29.3992 76.2584 29.417C75.8658 29.4349 75.5357 29.3455 75.2859 29.2292C75.0361 29.1219 74.8577 28.9967 74.7417 28.9162C74.6257 28.8268 74.5722 28.7731 74.5722 28.7731L74.5543 28.791Z" fill="white"/>
<path d="M90.48 25.5177C90.48 25.5177 90.6585 25.7055 91.0421 25.8754C91.2384 25.9559 91.4882 26.0185 91.7648 26.0006C92.0503 25.9738 92.3447 25.8665 92.6302 25.6608C92.7641 25.5535 92.9157 25.4461 93.0406 25.2941C93.1031 25.2226 93.1834 25.151 93.228 25.0795C93.2904 24.999 93.3529 24.9095 93.4153 24.829C93.6919 24.4981 93.9239 24.1225 94.1648 23.7379C94.4146 23.3623 94.6377 22.933 94.8875 22.5216C95.1105 22.0923 95.3514 21.6631 95.5566 21.2159C95.7797 20.7777 95.9849 20.3305 96.1812 19.8833C96.3685 19.4361 96.5648 19.0068 96.7254 18.5686C97.0466 17.7011 97.3232 16.8693 97.6444 16.1807C97.9477 15.4921 98.3403 14.9554 98.6971 14.6871C98.8845 14.5619 99.054 14.5083 99.17 14.4904C99.286 14.4814 99.3485 14.4725 99.3485 14.4725C99.3485 14.4725 99.286 14.4904 99.1789 14.5172C99.0719 14.553 98.9202 14.6335 98.7685 14.7676C98.6169 14.9107 98.4652 15.1164 98.3224 15.3758C98.1886 15.6352 98.0548 15.9482 97.9299 16.288C97.796 16.6279 97.6801 17.0124 97.5641 17.4238C97.4392 17.8352 97.3321 18.2645 97.1804 18.7207C97.0377 19.1678 96.8592 19.6239 96.6719 20.0801C96.4756 20.5362 96.2704 20.9923 96.0473 21.4395C95.8332 21.8956 95.5834 22.3249 95.3425 22.7631C95.0927 23.1924 94.8429 23.6038 94.5663 23.9973C94.2986 24.3908 94.0131 24.7575 93.7276 25.0705C93.6562 25.151 93.5849 25.2315 93.5224 25.312C93.4421 25.4014 93.3618 25.464 93.2904 25.5356C93.1388 25.6787 92.9693 25.7949 92.8087 25.9023C92.4786 26.1169 92.1038 26.2063 91.7826 26.1884C91.4614 26.1795 91.1938 26.0722 91.0064 25.9649C90.8101 25.8575 90.6852 25.7323 90.6049 25.6518C90.5246 25.5624 90.4889 25.5177 90.4889 25.5177H90.48Z" fill="white"/>
<path d="M79.8629 40.4354C79.8629 40.4354 80.077 40.5785 80.3893 40.7127C80.5499 40.7753 80.7283 40.8379 80.9246 40.8647C81.0227 40.8915 81.1209 40.8826 81.219 40.8915C81.3172 40.8915 81.4242 40.8915 81.5313 40.8647C81.6384 40.8468 81.7365 40.8468 81.8436 40.8021C81.9417 40.7663 82.0488 40.7574 82.1469 40.7127C82.2451 40.6679 82.3432 40.6501 82.4324 40.6053C82.5216 40.5606 82.6109 40.5248 82.6912 40.4891C82.8518 40.4175 82.9856 40.346 83.0926 40.3012C83.1908 40.2565 83.2532 40.2386 83.2532 40.2386C83.2532 40.2386 83.2175 40.2923 83.1551 40.3817C83.0926 40.4712 83.0034 40.6143 82.8696 40.7395C82.7358 40.8736 82.5662 41.0257 82.3432 41.1419C82.245 41.2135 82.1201 41.2582 81.9952 41.3029C81.8792 41.3566 81.7365 41.3745 81.6027 41.4013C81.335 41.4281 81.0495 41.4192 80.8086 41.3208C80.5677 41.2403 80.3625 41.1062 80.2198 40.972C79.9253 40.7037 79.854 40.4354 79.854 40.4354H79.8629Z" fill="white"/>
<path d="M53.5966 58.9752C53.5966 58.9752 53.7572 59.1004 53.9892 59.2256C54.1052 59.2882 54.2301 59.3419 54.3728 59.3777C54.4353 59.4045 54.5156 59.4045 54.578 59.4224C54.6494 59.4313 54.7208 59.4313 54.7922 59.4313C54.8636 59.4224 54.9439 59.4313 55.0152 59.4135C55.0866 59.3956 55.1669 59.3956 55.2383 59.3687C55.39 59.333 55.5327 59.2883 55.6576 59.2435C55.7825 59.2078 55.8896 59.163 55.9788 59.1362C56.0591 59.1183 56.1126 59.1004 56.1126 59.1004C56.1126 59.1004 56.0859 59.1452 56.0412 59.2167C55.9877 59.2883 55.9253 59.3956 55.8182 59.494C55.7111 59.6013 55.5773 59.7086 55.3989 59.798C55.3186 59.8427 55.2204 59.8785 55.1134 59.9053C55.0152 59.9411 54.8992 59.9411 54.7922 59.9501C54.5691 59.9501 54.3461 59.9053 54.1676 59.798C54.0695 59.7533 53.9981 59.6818 53.9357 59.6281C53.8732 59.5655 53.8108 59.5029 53.7751 59.4313C53.5966 59.172 53.5966 58.9573 53.5966 58.9573V58.9752Z" fill="white"/>
<path d="M70.245 55.3621C70.245 55.3621 70.3878 55.4515 70.593 55.5946C70.7893 55.7198 71.0391 55.854 71.2621 55.8629C71.3157 55.8808 71.3781 55.8629 71.4406 55.8629C71.503 55.845 71.5655 55.8539 71.619 55.8271C71.6815 55.8003 71.7439 55.7913 71.8064 55.7735C71.8599 55.7466 71.9223 55.7287 71.9759 55.7019C72.0919 55.6661 72.1811 55.6125 72.2525 55.5857C72.3238 55.5588 72.3684 55.5499 72.3684 55.5499C72.3684 55.5499 72.3595 55.5946 72.3238 55.6661C72.2881 55.7377 72.2525 55.845 72.1543 55.9434C72.074 56.0507 71.958 56.167 71.7974 56.2564C71.7171 56.3011 71.6279 56.3369 71.5298 56.3637C71.4316 56.3727 71.3246 56.3995 71.2175 56.3816C71.1105 56.3727 71.0123 56.3458 70.9142 56.3101C70.816 56.2743 70.7446 56.2117 70.6643 56.158C70.5216 56.0418 70.4235 55.9076 70.361 55.7824C70.2361 55.532 70.245 55.3442 70.245 55.3442V55.3621Z" fill="white"/>
<path d="M38.3401 78.9818C38.3401 78.9818 38.4828 79.0801 38.6524 79.2232C38.7416 79.2948 38.8397 79.3753 38.9379 79.4558C39.036 79.5273 39.1341 79.6257 39.2412 79.6794C39.3393 79.7509 39.4375 79.7956 39.5356 79.8403C39.5802 79.8403 39.6338 79.8761 39.6784 79.8761C39.723 79.8761 39.7765 79.9029 39.8211 79.894C39.9193 79.894 40.0174 79.894 40.0799 79.8761C40.1512 79.8761 40.1959 79.8761 40.1959 79.8761C40.1959 79.8761 40.178 79.9119 40.1334 79.9745C40.0977 80.0371 40.0263 80.1265 39.9104 80.1981C39.8033 80.2696 39.6338 80.3233 39.4464 80.3143C39.268 80.3143 39.0806 80.2339 38.9379 80.1355C38.6434 79.9298 38.4739 79.6346 38.4025 79.4021C38.3222 79.1696 38.3401 78.9907 38.3401 78.9907V78.9818Z" fill="white"/>
<path d="M13.5727 31.8765C13.5727 31.8765 13.7601 32.2342 14.0902 32.8692C14.4203 33.5042 14.8842 34.4075 15.4017 35.5075C15.9192 36.6165 16.5437 37.8955 17.1772 39.2817C17.775 40.6858 18.4084 42.1883 19.0419 43.6908C19.3452 44.4421 19.6486 45.2023 19.9519 45.9446C20.1036 46.3202 20.2553 46.6869 20.398 47.0536C20.5408 47.4203 20.6657 47.7869 20.7906 48.1447C21.3081 49.5846 21.7452 50.944 22.1378 52.0977C22.5304 53.2514 22.8337 54.2262 23.0568 54.9059C23.2709 55.5856 23.3869 55.9792 23.3869 55.9792C23.3869 55.9792 23.2263 55.6035 22.9586 54.9417C22.691 54.2799 22.2984 53.3408 21.8612 52.205C21.424 51.0692 20.8887 49.7456 20.3623 48.3235C20.2285 47.9658 20.0947 47.5991 19.9519 47.2414C19.8002 46.8837 19.6486 46.517 19.488 46.1413C19.1757 45.408 18.8634 44.6567 18.5422 43.9055C17.9356 42.403 17.3199 40.8915 16.7489 39.4785C16.1333 38.0833 15.6069 36.7596 15.1251 35.6417C14.1883 33.388 13.5638 31.8855 13.5638 31.8855L13.5727 31.8765Z" fill="white"/>
<path d="M7.15783 5.77051C7.15783 5.77051 10.4768 4.56314 12.6002 7.04048C12.6002 7.04048 11.137 3.89238 7.15783 5.77051Z" fill="white"/>
<path d="M25.207 2.49719C25.207 2.49719 25.3765 2.45248 25.6887 2.43459C25.9921 2.4167 26.4471 2.40776 26.9824 2.51509C27.5088 2.62241 28.1334 2.84599 28.6865 3.26633C28.9631 3.48098 29.2308 3.73139 29.4449 4.02653C29.659 4.32166 29.8553 4.64363 29.9981 4.99242C30.0337 5.08186 30.0694 5.14446 30.114 5.26967L30.1854 5.52009C30.23 5.69001 30.2835 5.85994 30.3282 6.02092C30.4441 6.34289 30.462 6.71851 30.4977 7.05836C30.5512 7.40716 30.5244 7.73807 30.4977 8.05109C30.4977 8.36411 30.4174 8.6503 30.3549 8.91861C30.3103 9.18691 30.1943 9.4105 30.123 9.6162C30.0516 9.8219 29.9356 9.98288 29.8731 10.126C29.7125 10.3943 29.5876 10.5284 29.5876 10.5284C29.5876 10.5284 29.6679 10.3675 29.775 10.0813C29.8196 9.92922 29.8999 9.76824 29.9356 9.55359C29.9713 9.34789 30.0427 9.11536 30.0605 8.856C30.0873 8.59664 30.1319 8.32834 30.1051 8.03321C30.1051 7.73807 30.1051 7.43399 30.0337 7.12097C29.9891 6.80795 29.9534 6.49493 29.8375 6.16402C29.7839 5.99409 29.7393 5.83311 29.6858 5.66318L29.6144 5.41277L29.5163 5.19813C29.3914 4.88511 29.2218 4.59891 29.0434 4.33955C28.8471 4.08019 28.6419 3.83871 28.401 3.64196C27.9282 3.2395 27.3928 2.98014 26.9111 2.81916C26.4293 2.65818 26.001 2.57769 25.6977 2.54191C25.3943 2.50614 25.2159 2.50614 25.2159 2.50614L25.207 2.49719Z" fill="white"/>
<path d="M45.326 1.08413C45.326 1.08413 45.4866 1.15567 45.7275 1.34349C45.9594 1.5313 46.2895 1.83538 46.584 2.28255C46.8784 2.72973 47.1371 3.31105 47.271 3.97287C47.3334 4.30378 47.387 4.65257 47.387 5.00137C47.3959 5.18024 47.387 5.35911 47.378 5.52903L47.3602 5.79734C47.3513 5.9136 47.3334 5.9762 47.3245 6.06564C47.2085 6.74534 47.1014 7.42505 46.9676 8.06004C46.8962 8.382 46.7803 8.67713 46.691 8.97227C46.5929 9.25846 46.5126 9.52676 46.4234 9.77718C46.3431 10.0276 46.2271 10.2422 46.1379 10.4301C46.0487 10.6179 45.9684 10.7878 45.9059 10.9219C45.7632 11.1902 45.6739 11.3333 45.6739 11.3333C45.6739 11.3333 45.7275 11.1724 45.8167 10.8772C45.8524 10.7341 45.9059 10.5553 45.9594 10.3496C46.004 10.1439 46.0843 9.92028 46.1379 9.66986C46.236 9.16903 46.3699 8.5877 46.5037 7.9706C46.584 7.32667 46.691 6.64696 46.7981 5.96726C46.807 5.88677 46.8338 5.77945 46.8338 5.72579L46.8516 5.47537C46.8606 5.31439 46.8784 5.14446 46.8695 4.98348C46.8695 4.66151 46.8516 4.33955 46.807 4.03547C46.7178 3.41837 46.5394 2.86388 46.3163 2.41671C46.2093 2.19312 46.0933 1.98742 45.9773 1.82644C45.8702 1.65651 45.7542 1.51341 45.6561 1.40609C45.4598 1.1825 45.326 1.06624 45.326 1.06624V1.08413Z" fill="white"/>
<path d="M68.5231 1.02152C68.5231 1.02152 68.4785 1.03941 68.4071 1.08413C68.3357 1.1199 68.2376 1.19145 68.1127 1.28983C67.9878 1.37032 67.8629 1.52236 67.7112 1.66545C67.6487 1.74594 67.5774 1.83538 67.506 1.93376C67.4346 2.02319 67.3543 2.12157 67.3008 2.23783C67.2383 2.34516 67.1669 2.46142 67.0956 2.58663C67.0331 2.71184 66.9885 2.84599 66.926 2.98014C66.7922 3.24845 66.7298 3.55252 66.6405 3.86555C66.5424 4.16962 66.5067 4.50948 66.4353 4.85827C66.364 5.20707 66.3193 5.54692 66.2569 5.90466C66.1944 6.25345 66.1231 6.61119 66.0606 6.95999C65.9714 7.30878 65.9089 7.65758 65.793 7.97954C65.6859 8.31045 65.5877 8.62348 65.4361 8.90072C65.3022 9.18692 65.1773 9.45522 65.0167 9.6788C64.8651 9.90239 64.7312 10.117 64.5885 10.287C64.4368 10.4479 64.3119 10.591 64.2138 10.7073C63.9996 10.9398 63.8747 11.065 63.8747 11.065C63.8747 11.065 63.964 10.9041 64.1335 10.6447C64.2138 10.5105 64.3208 10.3585 64.4368 10.1707C64.5439 9.98288 64.6331 9.7593 64.758 9.52677C64.8918 9.30318 64.9811 9.02593 65.0792 8.74868C65.1952 8.47143 65.2666 8.16736 65.3558 7.84539C65.4539 7.53237 65.4896 7.19252 65.5699 6.85267C65.6234 6.50387 65.6859 6.15508 65.7484 5.80628C65.8108 5.44855 65.8643 5.09081 65.9446 4.75095C66.016 4.4111 66.0785 4.0623 66.2034 3.73139C66.3104 3.40048 66.4086 3.07852 66.5781 2.80128C66.6495 2.65818 66.7208 2.52402 66.8011 2.38987C66.8904 2.27361 66.9796 2.15734 67.0599 2.04108C67.2116 1.80855 67.4346 1.65651 67.5863 1.50447C67.7736 1.37926 67.9164 1.25405 68.0681 1.19145C68.2108 1.11096 68.3268 1.07518 68.4071 1.04835C68.4874 1.02152 68.532 1.01258 68.532 1.01258L68.5231 1.02152Z" fill="white"/>
<path d="M87.0272 1.96059C87.0272 1.96059 86.9826 1.96059 86.9023 1.96059C86.822 1.96059 86.6971 1.98742 86.5544 2.03214C86.4116 2.07686 86.2421 2.1484 86.0637 2.26466C85.8763 2.3541 85.7068 2.54191 85.5016 2.68501C85.3231 2.88176 85.109 3.06063 84.9306 3.29316C84.7521 3.53464 84.5291 3.76717 84.3685 4.04442C84.199 4.33061 83.9759 4.6168 83.8332 4.92088C83.6726 5.22495 83.4941 5.51114 83.3425 5.84205C83.0123 6.4681 82.7179 7.12097 82.4146 7.71124C82.1201 8.31045 81.8079 8.86495 81.5224 9.33001C81.3707 9.55359 81.2279 9.75929 81.103 9.93816C80.9871 10.126 80.8443 10.2601 80.7372 10.3764C80.5231 10.6089 80.3982 10.7431 80.3982 10.7431C80.3982 10.7431 80.4874 10.5821 80.6569 10.3138C80.7372 10.1796 80.8532 10.0276 80.9335 9.83085C81.0317 9.63409 81.1298 9.4105 81.2547 9.17797C81.4688 8.68608 81.7276 8.12264 81.9863 7.50554C82.254 6.88844 82.5395 6.23557 82.8696 5.5827C83.0213 5.26073 83.2265 4.93876 83.4049 4.62574C83.5744 4.30377 83.8064 4.04441 83.9938 3.76717C84.19 3.46309 84.4399 3.25739 84.6451 3.01592C84.8592 2.78339 85.109 2.61346 85.3231 2.43459C85.564 2.30044 85.7692 2.13946 85.9923 2.07685C86.1975 1.98742 86.3938 1.9427 86.5454 1.92481C86.706 1.90693 86.8309 1.90693 86.9112 1.92481C87.0005 1.93376 87.0361 1.95164 87.0361 1.95164L87.0272 1.96059Z" fill="white"/>
<path d="M102.685 4.9656C102.685 4.9656 102.525 5.01031 102.293 5.16235C102.168 5.22496 102.034 5.33227 101.891 5.45748C101.74 5.57375 101.606 5.75262 101.445 5.9136C101.276 6.07458 101.16 6.31606 100.99 6.52176C100.821 6.72746 100.722 7.01365 100.571 7.26407C100.41 7.51448 100.312 7.80962 100.196 8.09581C100.071 8.39094 99.9551 8.68608 99.8302 8.99016C99.7053 9.28529 99.5715 9.58937 99.4466 9.8845C99.2949 10.1796 99.1343 10.4569 98.9916 10.7341C98.8399 11.0114 98.6615 11.2439 98.5009 11.4854C98.3492 11.7269 98.1618 11.9236 98.0102 12.1114C97.8585 12.3082 97.689 12.4602 97.5462 12.6033C97.4124 12.7464 97.2607 12.8537 97.1626 12.9432C96.9395 13.122 96.7968 13.2025 96.7968 13.2025C96.7968 13.2025 96.9128 13.0863 97.0912 12.8716C97.1804 12.7554 97.2964 12.6391 97.4035 12.4692C97.5105 12.3082 97.6533 12.1383 97.7693 11.9236C97.8942 11.7179 98.0458 11.5122 98.1708 11.2618C98.2957 11.0203 98.4473 10.7699 98.5812 10.5016C98.7061 10.2333 98.831 9.95605 98.9737 9.6788C99.0897 9.38367 99.2146 9.07959 99.3395 8.78445C99.4644 8.48038 99.5983 8.18524 99.7321 7.89011C99.8659 7.59497 99.9908 7.29984 100.169 7.03154C100.348 6.77217 100.473 6.49493 100.678 6.28923C100.874 6.07458 101.026 5.851 101.231 5.69896C101.427 5.53798 101.597 5.38593 101.784 5.2965C101.954 5.18918 102.114 5.10869 102.257 5.07291C102.391 5.01031 102.507 5.00137 102.578 4.98348C102.65 4.96559 102.694 4.9656 102.694 4.9656H102.685Z" fill="white"/>
</svg>
